HIERARCHY
ROOT Hips
{
	OFFSET 0.000000 0.000000 0.000000
	CHANNELS 6 Xposition Yposition Zposition Zrotation Xrotation Yrotation
	JOINT Spine
	{
		OFFSET 0.000000 -0.000000 0.070167
		CHANNELS 6 Xposition Yposition Zposition Zrotation Xrotation Yrotation
		JOINT Spine1
		{
			OFFSET 0.000000 -0.000000 0.166666
			CHANNELS 6 Xposition Yposition Zposition Zrotation Xrotation Yrotation
			JOINT Neck
			{
				OFFSET 0.000000 -0.000000 0.183780
				CHANNELS 6 Xposition Yposition Zposition Zrotation Xrotation Yrotation
				JOINT Head
				{
					OFFSET 0.000000 -0.017114 0.132633
					CHANNELS 6 Xposition Yposition Zposition Zrotation Xrotation Yrotation
					End Site
					{
						OFFSET 0.000000 -0.000000 0.171140
					}
				}
			}
			JOINT LeftShoulder
			{
				OFFSET 0.034466 0.004091 0.144174
				CHANNELS 6 Xposition Yposition Zposition Zrotation Xrotation Yrotation
				JOINT LeftArm
				{
					OFFSET 0.121044 0.000000 0.000000
					CHANNELS 6 Xposition Yposition Zposition Zrotation Xrotation Yrotation
					JOINT LeftForeArm
					{
						OFFSET 0.257070 0.000000 0.000000
						CHANNELS 6 Xposition Yposition Zposition Zrotation Xrotation Yrotation
						JOINT LeftHand
						{
							OFFSET 0.224060 0.000000 0.000000
							CHANNELS 6 Xposition Yposition Zposition Zrotation Xrotation Yrotation
							End Site
							{
								OFFSET 0.128355 0.000000 0.000000
							}
						}
					}
				}
			}
			JOINT RightShoulder
			{
				OFFSET -0.033538 0.004091 0.144174
				CHANNELS 6 Xposition Yposition Zposition Zrotation Xrotation Yrotation
				JOINT RightArm
				{
					OFFSET -0.121044 0.000000 0.000000
					CHANNELS 6 Xposition Yposition Zposition Zrotation Xrotation Yrotation
					JOINT RightForeArm
					{
						OFFSET -0.257070 0.000000 0.000000
						CHANNELS 6 Xposition Yposition Zposition Zrotation Xrotation Yrotation
						JOINT RightHand
						{
							OFFSET -0.224060 0.000000 0.000000
							CHANNELS 6 Xposition Yposition Zposition Zrotation Xrotation Yrotation
							End Site
							{
								OFFSET -0.128355 0.000000 0.000000
							}
						}
					}
				}
			}
		}
	}
	JOINT LeftUpLeg
	{
		OFFSET 0.085570 0.000000 0.000000
		CHANNELS 6 Xposition Yposition Zposition Zrotation Xrotation Yrotation
		JOINT LeftLeg
		{
			OFFSET 0.000000 0.000000 -0.385526
			CHANNELS 6 Xposition Yposition Zposition Zrotation Xrotation Yrotation
			JOINT LeftFoot
			{
				OFFSET 0.000000 0.000000 -0.365921
				CHANNELS 6 Xposition Yposition Zposition Zrotation Xrotation Yrotation
				JOINT LeftToeBase
				{
					OFFSET 0.000000 -0.128355 -0.055620
					CHANNELS 6 Xposition Yposition Zposition Zrotation Xrotation Yrotation
					End Site
					{
						OFFSET 0.000000 -0.034228 0.000000
					}
				}
			}
		}
	}
	JOINT RightUpLeg
	{
		OFFSET -0.085570 0.000000 0.000000
		CHANNELS 6 Xposition Yposition Zposition Zrotation Xrotation Yrotation
		JOINT RightLeg
		{
			OFFSET 0.000000 0.000000 -0.385526
			CHANNELS 6 Xposition Yposition Zposition Zrotation Xrotation Yrotation
			JOINT RightFoot
			{
				OFFSET 0.000000 0.000000 -0.365921
				CHANNELS 6 Xposition Yposition Zposition Zrotation Xrotation Yrotation
				JOINT RightToeBase
				{
					OFFSET 0.000000 -0.128355 -0.055620
					CHANNELS 6 Xposition Yposition Zposition Zrotation Xrotation Yrotation
					End Site
					{
						OFFSET 0.000000 -0.034228 0.000000
					}
				}
			}
		}
	}
}
MOTION
Frames: 8
Frame Time: 0.016667
0.238309 -0.242760 0.813924 98.675634 -8.297340 3.467707 0.000000 -0.000000 0.070167 12.637797 -2.207915 -3.132498 0.000000 -0.000000 0.166666 3.813405 6.238540 7.683336 0.000000 -0.000000 0.183780 4.198350 10.414946 4.102790 0.000000 -0.017114 0.132633 5.487217 2.708637 13.118160 0.034466 0.004091 0.144174 4.518202 10.366888 -2.651731 0.121044 -0.000000 0.000000 3.139511 11.819486 63.594450 0.257070 0.000000 -0.000000 -38.848217 14.296736 3.798223 0.224060 -0.000000 -0.000000 -7.754100 15.474601 1.784447 -0.033538 0.004091 0.144174 -9.073529 1.996494 11.205859 -0.121044 0.000000 -0.000000 34.305824 9.909608 -46.995318 -0.257070 0.000000 0.000000 34.828641 4.646197 15.951436 -0.224060 -0.000000 0.000000 12.098870 0.680300 10.047835 0.085570 -0.000000 0.000000 2.595730 0.575691 6.442054 0.000000 0.000000 -0.385526 -1.814508 17.904506 0.292373 0.000000 0.000000 -0.365921 12.307618 -12.173625 -6.104962 0.000000 -0.128355 -0.055620 -0.000001 0.000000 0.000000 -0.085570 -0.000000 0.000000 -13.318906 4.769832 13.025882 -0.000000 0.000000 -0.385526 30.810604 38.725110 -27.864199 0.000000 0.000000 -0.365921 -28.550023 11.330438 -4.981642 0.000000 -0.128355 -0.055620 -0.000000 0.000000 0.000003 
0.241838 -0.240597 0.813453 100.819323 -8.242630 3.449265 0.000000 0.000000 0.070167 12.384175 -2.193346 -2.866678 -0.000000 0.000000 0.166666 3.699416 6.654487 7.676471 -0.000000 -0.000000 0.183780 3.594032 11.094811 4.516264 -0.000000 -0.017114 0.132633 4.970868 1.564142 12.840412 0.034466 0.004091 0.144174 4.255179 10.055019 -2.422410 0.121044 -0.000000 -0.000000 2.324251 11.402548 63.330962 0.257070 -0.000000 -0.000000 -38.285249 14.300971 3.868293 0.224060 0.000000 0.000000 -8.096437 15.458943 2.047841 -0.033538 0.004091 0.144174 -9.155515 2.082813 11.214908 -0.121044 -0.000000 -0.000000 35.140473 9.962166 -47.780332 -0.257070 0.000000 0.000000 34.616888 4.693344 15.848102 -0.224060 -0.000000 -0.000000 11.962756 0.791774 10.147370 0.085570 0.000000 -0.000000 1.676134 0.813854 6.697186 -0.000000 0.000000 -0.385526 -3.200725 17.979515 0.704046 0.000000 0.000000 -0.365921 12.592889 -12.415338 -6.168028 0.000000 -0.128355 -0.055620 -0.000001 0.000001 -0.000000 -0.085570 0.000000 0.000000 -11.708706 4.502470 12.829123 -0.000000 0.000000 -0.385526 30.837399 39.409256 -28.851245 -0.000000 0.000000 -0.365921 -29.621397 10.849562 -6.506298 -0.000000 -0.128355 -0.055620 0.000001 -0.000003 -0.000000 
0.245111 -0.238424 0.813028 102.919435 -8.197761 3.386316 -0.000000 -0.000000 0.070167 12.132772 -2.161640 -2.611636 -0.000000 -0.000000 0.166666 3.580767 7.108273 7.715406 -0.000000 -0.000000 0.183780 2.896364 11.532275 4.683396 0.000000 -0.017114 0.132633 4.381208 0.724720 12.967507 0.034466 0.004091 0.144174 3.988897 9.992553 -2.289096 0.121044 -0.000000 -0.000000 0.931578 10.829028 63.219104 0.257070 0.000000 -0.000000 -37.554204 14.158956 3.475597 0.224060 -0.000000 -0.000000 -8.868990 15.078134 2.989767 -0.033538 0.004091 0.144174 -9.289575 2.081533 11.201888 -0.121044 0.000000 -0.000000 36.104127 9.889013 -48.559588 -0.257070 -0.000000 -0.000000 34.358112 4.634703 15.648153 -0.224060 -0.000000 -0.000000 11.818180 0.815726 10.084861 0.085570 0.000000 -0.000000 0.911920 1.058989 7.007795 0.000000 0.000000 -0.385526 -4.200243 18.031763 0.926135 -0.000000 0.000000 -0.365921 12.567859 -12.525649 -6.321186 0.000000 -0.128355 -0.055620 -0.000001 0.000004 -0.000001 -0.085570 0.000000 -0.000000 -9.988694 4.225613 12.687008 0.000000 0.000000 -0.385526 30.547567 40.045461 -29.656138 -0.000000 0.000000 -0.365921 -31.136937 10.322428 -8.227379 0.000000 -0.128355 -0.055620 -0.000000 0.000003 -0.000000 
0.248495 -0.236204 0.812788 105.061451 -8.181985 3.270387 -0.000000 -0.000000 0.070167 11.828059 -2.126290 -2.337774 -0.000000 -0.000000 0.166666 3.438799 7.590913 7.801707 -0.000000 -0.000000 0.183780 2.736186 11.580665 4.879642 -0.000000 -0.017114 0.132633 4.186641 0.753349 12.751618 0.034466 0.004091 0.144174 3.662255 9.948894 -2.127573 0.121044 -0.000000 -0.000000 -0.497145 10.103302 62.887123 0.257070 -0.000000 0.000000 -36.626025 13.941698 3.308021 0.224060 0.000000 -0.000000 -9.614506 14.695111 3.773289 -0.033538 0.004091 0.144174 -9.395928 2.067435 11.184649 -0.121044 0.000000 -0.000000 37.517037 10.214252 -49.539147 -0.257070 0.000000 -0.000000 34.154750 4.339171 15.824148 -0.224060 -0.000000 -0.000000 11.465330 0.484864 10.296111 0.085570 -0.000000 -0.000000 0.003261 1.387099 7.390558 0.000000 0.000000 -0.385526 -5.244932 17.984108 1.127078 0.000000 0.000000 -0.365921 12.741179 -12.652540 -6.200469 0.000000 -0.128355 -0.055620 -0.000001 0.000001 0.000000 -0.085570 -0.000000 -0.000000 -8.920237 3.820320 12.628223 -0.000000 0.000000 -0.385526 30.303572 40.790491 -29.978079 0.000000 0.000000 -0.365921 -32.233128 9.851112 -9.454902 0.000000 -0.128355 -0.055620 0.000001 0.000002 0.000001 
0.251901 -0.233961 0.812710 107.191186 -8.202401 3.176074 -0.000000 -0.000000 0.070167 11.497030 -2.068064 -2.170643 -0.000000 -0.000000 0.166666 3.281225 8.052514 8.002316 -0.000000 -0.000000 0.183780 3.073239 10.788761 5.709686 -0.000000 -0.017114 0.132633 4.126303 2.299384 11.111209 0.034466 0.004091 0.144174 3.344908 10.000860 -1.988439 0.121044 0.000000 0.000000 -2.271643 9.273975 62.480829 0.257070 -0.000000 -0.000000 -35.437477 13.633911 2.948287 0.224060 -0.000000 -0.000000 -10.536306 14.123555 4.743950 -0.033538 0.004091 0.144174 -9.437766 1.980935 11.051044 -0.121044 -0.000000 -0.000000 38.805313 10.312544 -50.482577 -0.257070 0.000000 -0.000000 33.792842 4.063858 15.732069 -0.224060 -0.000000 0.000000 11.202217 0.273461 10.346300 0.085570 -0.000000 -0.000000 -0.762361 1.828799 7.692386 0.000000 0.000000 -0.385526 -6.364071 17.786359 1.410652 0.000000 0.000000 -0.365921 13.106047 -12.607345 -5.787023 0.000000 -0.128355 -0.055620 -0.000002 0.000001 0.000001 -0.085570 -0.000000 -0.000000 -7.697031 3.511707 12.522699 0.000000 0.000000 -0.385526 29.712914 41.410662 -30.022827 0.000000 0.000000 -0.365921 -32.720735 8.944147 -10.885634 0.000000 -0.128355 -0.055620 -0.000000 -0.000001 0.000001 
0.255158 -0.231568 0.812738 109.426830 -8.123041 3.040703 0.000000 -0.000000 0.070167 11.091693 -2.109457 -1.887778 -0.000000 -0.000000 0.166666 3.106799 8.513261 8.075164 -0.000000 -0.000000 0.183780 3.087092 10.766100 6.110372 0.000000 -0.017114 0.132633 4.049234 2.517054 10.589214 0.034466 0.004091 0.144174 2.897178 9.957551 -1.805045 0.121044 -0.000000 0.000000 -4.257896 8.536300 62.049079 0.257070 -0.000000 -0.000000 -34.037756 13.614431 2.468950 0.224060 -0.000000 0.000000 -11.379230 13.742169 6.259133 -0.033538 0.004091 0.144174 -9.625868 1.996670 10.994456 -0.121044 0.000000 0.000000 40.157175 10.198473 -51.323414 -0.257070 -0.000000 -0.000000 33.527090 3.600371 15.534043 -0.224060 0.000000 0.000000 10.774372 -0.107588 10.571733 0.085570 -0.000000 0.000000 -1.501537 2.139676 8.013272 -0.000000 0.000000 -0.385526 -6.835412 17.654992 1.511865 0.000000 0.000000 -0.365921 12.560064 -12.701733 -6.213023 0.000000 -0.128355 -0.055620 -0.000000 -0.000002 0.000001 -0.085570 0.000000 0.000000 -7.094182 2.954639 12.465333 0.000000 0.000000 -0.385526 28.923665 42.237869 -29.496834 0.000000 0.000000 -0.365921 -32.477604 8.225149 -11.082214 0.000000 -0.128355 -0.055620 0.000000 0.000000 0.000001 
0.258377 -0.229368 0.812727 111.652761 -8.045267 2.912464 0.000000 0.000000 0.070167 10.685720 -2.095507 -1.631381 -0.000000 -0.000000 0.166666 2.937036 8.862289 8.178241 0.000000 -0.000000 0.183780 2.807817 10.856513 6.323714 0.000000 -0.017114 0.132633 3.737148 2.710822 10.497444 0.034466 0.004091 0.144174 2.347636 9.925967 -1.604869 0.121044 0.000000 0.000000 -6.491030 7.908434 61.548378 0.257070 0.000000 0.000000 -32.537184 13.276354 1.846715 0.224060 0.000000 -0.000000 -11.883512 13.069872 7.205196 -0.033538 0.004091 0.144174 -9.751383 2.001095 10.901770 -0.121044 0.000000 -0.000000 41.483270 10.065609 -52.213736 -0.257070 -0.000000 -0.000000 33.128794 3.311636 15.208743 -0.224060 0.000000 -0.000000 10.629744 -0.261448 10.474936 0.085570 0.000000 -0.000000 -2.031382 2.500111 8.214523 -0.000000 0.000000 -0.385526 -7.861535 17.456686 1.850847 -0.000000 0.000000 -0.365921 12.545844 -12.793872 -5.672973 0.000000 -0.128355 -0.055620 0.000001 -0.000001 0.000000 -0.085570 0.000000 0.000000 -6.553882 2.377592 12.354641 -0.000000 0.000000 -0.385526 28.329437 42.893168 -28.922163 0.000000 0.000000 -0.365921 -31.817207 7.575053 -11.151856 0.000000 -0.128355 -0.055620 0.000000 0.000000 0.000001 
0.261495 -0.227114 0.812780 113.887448 -7.948502 2.765063 -0.000000 0.000000 0.070167 10.256822 -2.109947 -1.413281 -0.000000 -0.000000 0.166666 2.752340 9.220664 8.359322 -0.000000 -0.000000 0.183780 2.436574 11.199335 6.497666 0.000000 -0.017114 0.132633 3.394481 2.471239 10.502120 0.034466 0.004091 0.144174 1.634322 9.630557 -1.405143 0.121044 0.000000 0.000000 -8.759325 7.610613 60.953680 0.257070 0.000000 -0.000000 -31.033128 12.801431 1.288416 0.224060 0.000000 -0.000000 -12.265100 12.326409 7.845207 -0.033538 0.004091 0.144174 -9.860875 2.042453 10.798182 -0.121044 0.000000 0.000000 43.032097 10.030695 -53.143441 -0.257070 0.000000 -0.000000 32.872034 2.658688 15.064886 -0.224060 0.000000 -0.000000 10.144272 -0.880974 10.457746 0.085570 0.000000 0.000000 -2.133922 2.880805 8.381434 -0.000000 0.000000 -0.385526 -9.335637 17.253145 2.283489 0.000000 0.000000 -0.365921 12.601154 -12.562875 -6.351879 0.000000 -0.128355 -0.055620 -0.000002 0.000003 -0.000002 -0.085570 0.000000 -0.000000 -6.144729 1.703838 12.230690 0.000000 0.000000 -0.385526 28.108298 43.411197 -28.397408 0.000000 0.000000 -0.365921 -31.278438 6.748548 -11.553490 -0.000000 -0.128355 -0.055620 0.000000 0.000003 0.000001 
